<?xml version="1.0" encoding="UTF-8"?>
<!DOCTYPE svg PUBLIC "-//W3C//DTD SVG 1.1//EN" "http://www.w3.org/Graphics/SVG/1.1/DTD/svg11.dtd">
<svg width="343mm" height="193mm" viewBox="0 0 34300 19300" version="1.1" xmlns="http://www.w3.org/2000/svg" xmlns:xlink="http://www.w3.org/1999/xlink" stroke-width="28.222" stroke-linejoin="round" xml:space="preserve">
 <path fill="rgb(255,255,255)" stroke="none" d="M 17136,19278 L -13,19278 -13,-13 34284,-13 34284,19278 17136,19278 Z"/>
 <path fill="none" stroke="rgb(179,179,179)" stroke-linejoin="round" d="M 16430,14883 L 2572,14883 2572,571 30287,571 30287,14883 16430,14883 Z"/>
 <path fill="none" stroke="rgb(179,179,179)" stroke-linejoin="round" d="M 30286,14882 L 2572,14882"/>
 <path fill="none" stroke="rgb(179,179,179)" stroke-linejoin="round" d="M 30286,12019 L 2572,12019"/>
 <path fill="none" stroke="rgb(179,179,179)" stroke-linejoin="round" d="M 30286,9157 L 2572,9157"/>
 <path fill="none" stroke="rgb(179,179,179)" stroke-linejoin="round" d="M 30286,6295 L 2572,6295"/>
 <path fill="none" stroke="rgb(179,179,179)" stroke-linejoin="round" d="M 30286,3432 L 2572,3432"/>
 <path fill="none" stroke="rgb(179,179,179)" stroke-linejoin="round" d="M 30286,570 L 2572,570"/>
 <path fill="none" stroke="rgb(179,179,179)" stroke-linejoin="round" d="M 2572,15032 L 2572,14882"/>
 <path fill="none" stroke="rgb(179,179,179)" stroke-linejoin="round" d="M 2572,15032 L 2572,14882"/>
 <path fill="none" stroke="rgb(179,179,179)" stroke-linejoin="round" d="M 4419,15032 L 4419,14882"/>
 <path fill="none" stroke="rgb(179,179,179)" stroke-linejoin="round" d="M 4419,15032 L 4419,14882"/>
 <path fill="none" stroke="rgb(179,179,179)" stroke-linejoin="round" d="M 6267,15032 L 6267,14882"/>
 <path fill="none" stroke="rgb(179,179,179)" stroke-linejoin="round" d="M 6267,15032 L 6267,14882"/>
 <path fill="none" stroke="rgb(179,179,179)" stroke-linejoin="round" d="M 8115,15032 L 8115,14882"/>
 <path fill="none" stroke="rgb(179,179,179)" stroke-linejoin="round" d="M 8115,15032 L 8115,14882"/>
 <path fill="none" stroke="rgb(179,179,179)" stroke-linejoin="round" d="M 9962,15032 L 9962,14882"/>
 <path fill="none" stroke="rgb(179,179,179)" stroke-linejoin="round" d="M 9962,15032 L 9962,14882"/>
 <path fill="none" stroke="rgb(179,179,179)" stroke-linejoin="round" d="M 11810,15032 L 11810,14882"/>
 <path fill="none" stroke="rgb(179,179,179)" stroke-linejoin="round" d="M 11810,15032 L 11810,14882"/>
 <path fill="none" stroke="rgb(179,179,179)" stroke-linejoin="round" d="M 13658,15032 L 13658,14882"/>
 <path fill="none" stroke="rgb(179,179,179)" stroke-linejoin="round" d="M 13658,15032 L 13658,14882"/>
 <path fill="none" stroke="rgb(179,179,179)" stroke-linejoin="round" d="M 15506,15032 L 15506,14882"/>
 <path fill="none" stroke="rgb(179,179,179)" stroke-linejoin="round" d="M 15506,15032 L 15506,14882"/>
 <path fill="none" stroke="rgb(179,179,179)" stroke-linejoin="round" d="M 17352,15032 L 17352,14882"/>
 <path fill="none" stroke="rgb(179,179,179)" stroke-linejoin="round" d="M 17352,15032 L 17352,14882"/>
 <path fill="none" stroke="rgb(179,179,179)" stroke-linejoin="round" d="M 19200,15032 L 19200,14882"/>
 <path fill="none" stroke="rgb(179,179,179)" stroke-linejoin="round" d="M 19200,15032 L 19200,14882"/>
 <path fill="none" stroke="rgb(179,179,179)" stroke-linejoin="round" d="M 21048,15032 L 21048,14882"/>
 <path fill="none" stroke="rgb(179,179,179)" stroke-linejoin="round" d="M 21048,15032 L 21048,14882"/>
 <path fill="none" stroke="rgb(179,179,179)" stroke-linejoin="round" d="M 22896,15032 L 22896,14882"/>
 <path fill="none" stroke="rgb(179,179,179)" stroke-linejoin="round" d="M 22896,15032 L 22896,14882"/>
 <path fill="none" stroke="rgb(179,179,179)" stroke-linejoin="round" d="M 24743,15032 L 24743,14882"/>
 <path fill="none" stroke="rgb(179,179,179)" stroke-linejoin="round" d="M 24743,15032 L 24743,14882"/>
 <path fill="none" stroke="rgb(179,179,179)" stroke-linejoin="round" d="M 26591,15032 L 26591,14882"/>
 <path fill="none" stroke="rgb(179,179,179)" stroke-linejoin="round" d="M 26591,15032 L 26591,14882"/>
 <path fill="none" stroke="rgb(179,179,179)" stroke-linejoin="round" d="M 28439,15032 L 28439,14882"/>
 <path fill="none" stroke="rgb(179,179,179)" stroke-linejoin="round" d="M 28439,15032 L 28439,14882"/>
 <path fill="none" stroke="rgb(179,179,179)" stroke-linejoin="round" d="M 30286,15032 L 30286,14882"/>
 <path fill="none" stroke="rgb(179,179,179)" stroke-linejoin="round" d="M 30286,15032 L 30286,14882"/>
 <path fill="none" stroke="rgb(179,179,179)" stroke-linejoin="round" d="M 2572,14882 L 30286,14882"/>
 <path fill="none" stroke="rgb(179,179,179)" stroke-linejoin="round" d="M 2422,14882 L 2572,14882"/>
 <path fill="none" stroke="rgb(179,179,179)" stroke-linejoin="round" d="M 2422,14882 L 2572,14882"/>
 <path fill="none" stroke="rgb(179,179,179)" stroke-linejoin="round" d="M 2422,12019 L 2572,12019"/>
 <path fill="none" stroke="rgb(179,179,179)" stroke-linejoin="round" d="M 2422,12019 L 2572,12019"/>
 <path fill="none" stroke="rgb(179,179,179)" stroke-linejoin="round" d="M 2422,9157 L 2572,9157"/>
 <path fill="none" stroke="rgb(179,179,179)" stroke-linejoin="round" d="M 2422,9157 L 2572,9157"/>
 <path fill="none" stroke="rgb(179,179,179)" stroke-linejoin="round" d="M 2422,6295 L 2572,6295"/>
 <path fill="none" stroke="rgb(179,179,179)" stroke-linejoin="round" d="M 2422,6295 L 2572,6295"/>
 <path fill="none" stroke="rgb(179,179,179)" stroke-linejoin="round" d="M 2422,3432 L 2572,3432"/>
 <path fill="none" stroke="rgb(179,179,179)" stroke-linejoin="round" d="M 2422,3432 L 2572,3432"/>
 <path fill="none" stroke="rgb(179,179,179)" stroke-linejoin="round" d="M 2422,570 L 2572,570"/>
 <path fill="none" stroke="rgb(179,179,179)" stroke-linejoin="round" d="M 2422,570 L 2572,570"/>
 <path fill="none" stroke="rgb(179,179,179)" stroke-linejoin="round" d="M 2572,14882 L 2572,570"/>
 <path fill="none" stroke="rgb(255,66,14)" stroke-width="80" stroke-linejoin="round" d="M 2572,8528 L 4419,8528 6267,9043 8115,8814 9962,8699 11810,7783 13658,7898 15506,7841 17352,7841 19200,8012 21048,8070 22896,8070 24743,13794 26591,13794 28439,13794 30286,13794"/>
 <path fill="none" stroke="rgb(18,118,34)" stroke-width="80" stroke-linejoin="round" d="M 2572,14882 L 4419,14882 6267,14882 8115,14882 9962,14882 11810,14882 13658,14882 15506,14882 17352,14882 19200,14882 21048,14882 22896,14882 24743,4405 26591,4119 28439,4119 30286,2802"/>
 <text class="SVGTextShape" transform="rotate(-44.9 896 17116)"><tspan class="TextParagraph" font-family="Liberation Sans, sans-serif" font-size="353px" font-weight="400"><tspan class="TextPosition" x="896" y="17116"><tspan fill="rgb(0,0,0)" stroke="none" style="white-space: pre">mathcomp-1.6.1</tspan></tspan></tspan></text>
 <text class="SVGTextShape" transform="rotate(-44.9 2743 17116)"><tspan class="TextParagraph" font-family="Liberation Sans, sans-serif" font-size="353px" font-weight="400"><tspan class="TextPosition" x="2743" y="17116"><tspan fill="rgb(0,0,0)" stroke="none" style="white-space: pre">mathcomp-1.7.0</tspan></tspan></tspan></text>
 <text class="SVGTextShape" transform="rotate(-44.9 4591 17116)"><tspan class="TextParagraph" font-family="Liberation Sans, sans-serif" font-size="353px" font-weight="400"><tspan class="TextPosition" x="4591" y="17116"><tspan fill="rgb(0,0,0)" stroke="none" style="white-space: pre">mathcomp-1.8.0</tspan></tspan></tspan></text>
 <text class="SVGTextShape" transform="rotate(-44.9 6439 17116)"><tspan class="TextParagraph" font-family="Liberation Sans, sans-serif" font-size="353px" font-weight="400"><tspan class="TextPosition" x="6439" y="17116"><tspan fill="rgb(0,0,0)" stroke="none" style="white-space: pre">mathcomp-1.9.0</tspan></tspan></tspan></text>
 <text class="SVGTextShape" transform="rotate(-44.9 8155 17247)"><tspan class="TextParagraph" font-family="Liberation Sans, sans-serif" font-size="353px" font-weight="400"><tspan class="TextPosition" x="8155" y="17247"><tspan fill="rgb(0,0,0)" stroke="none" style="white-space: pre">mathcomp-1.10.0</tspan></tspan></tspan></text>
 <text class="SVGTextShape" transform="rotate(-44.9 10003 17247)"><tspan class="TextParagraph" font-family="Liberation Sans, sans-serif" font-size="353px" font-weight="400"><tspan class="TextPosition" x="10003" y="17247"><tspan fill="rgb(0,0,0)" stroke="none" style="white-space: pre">mathcomp-1.11.0</tspan></tspan></tspan></text>
 <text class="SVGTextShape" transform="rotate(-44.9 11851 17247)"><tspan class="TextParagraph" font-family="Liberation Sans, sans-serif" font-size="353px" font-weight="400"><tspan class="TextPosition" x="11851" y="17247"><tspan fill="rgb(0,0,0)" stroke="none" style="white-space: pre">mathcomp-1.12.0</tspan></tspan></tspan></text>
 <text class="SVGTextShape" transform="rotate(-44.9 13699 17247)"><tspan class="TextParagraph" font-family="Liberation Sans, sans-serif" font-size="353px" font-weight="400"><tspan class="TextPosition" x="13699" y="17247"><tspan fill="rgb(0,0,0)" stroke="none" style="white-space: pre">mathcomp-1.13.0</tspan></tspan></tspan></text>
 <text class="SVGTextShape" transform="rotate(-44.9 15546 17247)"><tspan class="TextParagraph" font-family="Liberation Sans, sans-serif" font-size="353px" font-weight="400"><tspan class="TextPosition" x="15546" y="17247"><tspan fill="rgb(0,0,0)" stroke="none" style="white-space: pre">mathcomp-1.14.0</tspan></tspan></tspan></text>
 <text class="SVGTextShape" transform="rotate(-44.9 17394 17247)"><tspan class="TextParagraph" font-family="Liberation Sans, sans-serif" font-size="353px" font-weight="400"><tspan class="TextPosition" x="17394" y="17247"><tspan fill="rgb(0,0,0)" stroke="none" style="white-space: pre">mathcomp-1.15.0</tspan></tspan></tspan></text>
 <text class="SVGTextShape" transform="rotate(-44.9 19242 17247)"><tspan class="TextParagraph" font-family="Liberation Sans, sans-serif" font-size="353px" font-weight="400"><tspan class="TextPosition" x="19242" y="17247"><tspan fill="rgb(0,0,0)" stroke="none" style="white-space: pre">mathcomp-1.16.0</tspan></tspan></tspan></text>
 <text class="SVGTextShape" transform="rotate(-44.9 21090 17247)"><tspan class="TextParagraph" font-family="Liberation Sans, sans-serif" font-size="353px" font-weight="400"><tspan class="TextPosition" x="21090" y="17247"><tspan fill="rgb(0,0,0)" stroke="none" style="white-space: pre">mathcomp-1.17.0</tspan></tspan></tspan></text>
 <text class="SVGTextShape" transform="rotate(-44.9 23068 17116)"><tspan class="TextParagraph" font-family="Liberation Sans, sans-serif" font-size="353px" font-weight="400"><tspan class="TextPosition" x="23068" y="17116"><tspan fill="rgb(0,0,0)" stroke="none" style="white-space: pre">mathcomp-2.0.0</tspan></tspan></tspan></text>
 <text class="SVGTextShape" transform="rotate(-44.9 24915 17116)"><tspan class="TextParagraph" font-family="Liberation Sans, sans-serif" font-size="353px" font-weight="400"><tspan class="TextPosition" x="24915" y="17116"><tspan fill="rgb(0,0,0)" stroke="none" style="white-space: pre">mathcomp-2.1.0</tspan></tspan></tspan></text>
 <text class="SVGTextShape" transform="rotate(-44.9 26763 17116)"><tspan class="TextParagraph" font-family="Liberation Sans, sans-serif" font-size="353px" font-weight="400"><tspan class="TextPosition" x="26763" y="17116"><tspan fill="rgb(0,0,0)" stroke="none" style="white-space: pre">mathcomp-2.2.0</tspan></tspan></tspan></text>
 <text class="SVGTextShape" transform="rotate(-44.9 26889 18837)"><tspan class="TextParagraph" font-family="Liberation Sans, sans-serif" font-size="353px" font-weight="400"><tspan class="TextPosition" x="26889" y="18837"><tspan fill="rgb(0,0,0)" stroke="none" style="white-space: pre">mathcomp-2.2.0-129-g36e48403</tspan></tspan></tspan></text>
 <text class="SVGTextShape"><tspan class="TextParagraph" font-family="Liberation Sans, sans-serif" font-size="353px" font-weight="400"><tspan class="TextPosition" x="2137" y="15003"><tspan fill="rgb(0,0,0)" stroke="none" style="white-space: pre">0</tspan></tspan></tspan></text>
 <text class="SVGTextShape"><tspan class="TextParagraph" font-family="Liberation Sans, sans-serif" font-size="353px" font-weight="400"><tspan class="TextPosition" x="1952" y="12140"><tspan fill="rgb(0,0,0)" stroke="none" style="white-space: pre">50</tspan></tspan></tspan></text>
 <text class="SVGTextShape"><tspan class="TextParagraph" font-family="Liberation Sans, sans-serif" font-size="353px" font-weight="400"><tspan class="TextPosition" x="1766" y="9277"><tspan fill="rgb(0,0,0)" stroke="none" style="white-space: pre">100</tspan></tspan></tspan></text>
 <text class="SVGTextShape"><tspan class="TextParagraph" font-family="Liberation Sans, sans-serif" font-size="353px" font-weight="400"><tspan class="TextPosition" x="1766" y="6415"><tspan fill="rgb(0,0,0)" stroke="none" style="white-space: pre">150</tspan></tspan></tspan></text>
 <text class="SVGTextShape"><tspan class="TextParagraph" font-family="Liberation Sans, sans-serif" font-size="353px" font-weight="400"><tspan class="TextPosition" x="1766" y="3552"><tspan fill="rgb(0,0,0)" stroke="none" style="white-space: pre">200</tspan></tspan></tspan></text>
 <text class="SVGTextShape"><tspan class="TextParagraph" font-family="Liberation Sans, sans-serif" font-size="353px" font-weight="400"><tspan class="TextPosition" x="1766" y="690"><tspan fill="rgb(0,0,0)" stroke="none" style="white-space: pre">250</tspan></tspan></tspan></text>
 <path fill="none" stroke="rgb(255,66,14)" stroke-width="80" stroke-linejoin="round" d="M 31230,9383 L 32030,9383"/>
 <path fill="none" stroke="rgb(18,118,34)" stroke-width="80" stroke-linejoin="round" d="M 31230,9880 L 32030,9880"/>
 <text class="SVGTextShape"><tspan class="TextParagraph" font-family="Liberation Sans, sans-serif" font-size="353px" font-weight="400"><tspan class="TextPosition" x="32130" y="9503"><tspan fill="rgb(0,0,0)" stroke="none" style="white-space: pre">structure</tspan></tspan></tspan></text>
 <text class="SVGTextShape"><tspan class="TextParagraph" font-family="Liberation Sans, sans-serif" font-size="353px" font-weight="400"><tspan class="TextPosition" x="32130" y="10000"><tspan fill="rgb(0,0,0)" stroke="none" style="white-space: pre">hb.structure</tspan></tspan></tspan></text>
</svg>